<svg width="817" height="367" viewBox="0 0 817 367" fill="none" xmlns="http://www.w3.org/2000/svg">
<path fill-rule="evenodd" clip-rule="evenodd" d="M141.833 1.76986C139.13 3.43386 81.8661 57.4778 60.0831 78.9228C52.3181 86.5678 51.3331 87.9399 51.3331 91.1159C51.3331 96.2469 53.9701 99.0079 59.4621 99.6269L64.0131 100.14L64.6451 140.524C65.1501 172.769 65.5671 181.463 66.7161 183.662C68.8591 187.764 73.5421 191.829 77.4021 192.936C79.4871 193.534 107.751 193.916 149.865 193.916H218.909L223.359 191.666C226.422 190.118 228.749 187.882 230.821 184.496L233.833 179.577L234.126 139.746L234.419 99.9159H237.426C242.398 99.9159 246.158 97.3649 246.883 93.4999C247.235 91.6249 247.233 89.1749 246.878 88.0568C246.523 86.9388 235.358 75.7618 222.068 63.2198C208.777 50.6778 189.195 32.1789 178.551 22.1109C167.908 12.0429 157.767 2.93185 156.016 1.86385C152 -0.584145 145.726 -0.626139 141.833 1.76986ZM128.043 48.1659C117.511 58.2039 104.56 70.4659 99.2641 75.4159C93.9671 80.3659 89.1161 85.4499 88.4831 86.7129C87.6751 88.3279 87.3331 100.725 87.3331 128.463C87.3331 176.295 85.7211 171.916 103.333 171.916H115.333L115.349 154.166C115.366 134.684 116.447 127.795 120.589 120.769C133.135 99.4869 167.31 99.7729 179.772 121.265C183.266 127.292 184.333 135.087 184.333 154.6V171.916H195.61C204.199 171.916 207.418 171.545 209.11 170.359L211.333 168.803V127.937V87.0719L187.083 64.2949C173.746 51.7679 160.059 38.9079 156.67 35.7169C153.28 32.5269 149.761 29.9159 148.849 29.9159C147.938 29.9159 138.576 38.1279 128.043 48.1659ZM496.208 168.916C496.139 204.116 496.027 233.704 495.958 234.666C495.847 236.216 497.063 236.448 506.583 236.7L517.333 236.984V207.662C517.333 179.238 517.402 178.204 519.583 173.892C522.182 168.755 528.897 163.276 533.698 162.375C541.584 160.896 551.879 167.118 554.164 174.745C554.94 177.336 555.333 188.44 555.333 207.783V236.918L566.083 236.667L576.833 236.416L577.13 205.916C577.439 174.243 576.816 166.707 573.326 159.941C567.929 149.476 554.969 143.275 540.273 144.126C533.663 144.508 531.8 145.05 527.419 147.861C524.602 149.669 521.185 152.558 519.826 154.282L517.355 157.416L517.344 131.166L517.333 104.916H506.833H496.333L496.208 168.916ZM596.454 106.626C590.213 109.701 587.391 118.52 590.612 124.886C593.816 131.217 602.874 133.713 609.029 129.96C613.562 127.196 615.5 123.739 615.5 118.416C615.5 108.128 605.709 102.067 596.454 106.626ZM629.963 119.166C629.281 133.609 629.362 199.424 630.092 223.628L630.49 236.841L640.412 236.829L650.333 236.817V230.3V223.783L655.083 228.636C662.666 236.383 667.771 238.35 680.385 238.386C690.564 238.415 691.2 238.286 698.385 234.725C714.966 226.508 724.333 210.246 724.333 189.679C724.333 170.59 714.188 153.424 698.586 146.112C693.383 143.674 691.733 143.416 681.333 143.416C670.756 143.416 669.374 143.641 664.119 146.222C660.889 147.808 656.649 151.022 654.369 153.613L650.333 158.198V131.557V104.916H640.485H630.636L629.963 119.166ZM338.317 140.166C324.191 179.319 304.757 232.839 303.81 235.198C303.144 236.858 303.935 236.96 315.382 236.698L327.67 236.416L332.59 221.649L337.511 206.883L363.134 207.149L388.756 207.416L393.434 221.916L398.112 236.416L410.861 236.749C422.894 237.064 423.57 236.98 422.877 235.249C422.474 234.241 419.308 225.541 415.843 215.916C412.378 206.291 405.398 186.941 400.333 172.916C395.268 158.891 388.288 139.541 384.823 129.916C381.358 120.291 378.207 111.628 377.821 110.666C377.2 109.118 375.53 108.916 363.355 108.916H349.591L338.317 140.166ZM143.333 130.114C138.14 133.638 137.291 137.424 137.583 155.745L137.833 171.416L149.583 171.698L161.333 171.979L161.495 161.698C161.584 156.043 161.565 147.591 161.453 142.916C161.265 135.05 161.038 134.203 158.413 131.557C154.38 127.492 148.086 126.889 143.333 130.114ZM357.515 150.224C354.591 158.58 350.903 169.016 349.321 173.416C347.738 177.816 346.145 182.653 345.78 184.166L345.116 186.916H363.332C377.491 186.916 381.441 186.638 381.071 185.666C380.81 184.979 376.865 173.616 372.306 160.416C367.746 147.216 363.749 136.105 363.424 135.724C363.099 135.344 360.44 141.869 357.515 150.224ZM473.771 143.854C468.389 145.142 460.242 150.213 456.228 154.773L452.333 159.198V152.057V144.916H441.9H431.468L431.596 190.948L431.724 236.98L442.278 236.698L452.833 236.416V208.916C452.834 178.341 452.747 178.799 459.866 171.703C464.769 166.818 471.592 164.572 479.924 165.103L486.333 165.511V154.213V142.916L481.583 143.018C478.971 143.075 475.455 143.451 473.771 143.854ZM592.333 190.916V236.916H602.833H613.333V190.916V144.916H602.833H592.333V190.916ZM735.333 176.206C735.333 209.264 735.855 214.138 740.335 222.92C743.087 228.315 748.741 233.749 754.244 236.288C757.837 237.947 760.785 238.407 767.833 238.411C778.188 238.417 782.983 236.617 790.692 229.831L795.226 225.84L795.529 231.128L795.833 236.416L806.083 236.737L816.333 237.058V190.987V144.916H805.833H795.333L795.311 173.166C795.287 204.286 794.984 206.085 788.739 212.267C777.538 223.353 761.909 221.197 758.376 208.077C757.276 203.992 756.499 185.373 756.398 160.666L756.333 144.916H745.833H735.333V176.206ZM665.777 164.29C659.864 167.043 654.137 173.288 652.494 178.774C650.647 184.939 651.053 198.712 653.22 203.416C657.269 212.206 665.701 217.978 675.578 218.723C685.882 219.499 694.96 213.271 700.076 201.916C702.479 196.581 702.275 183.571 699.699 177.916C693.331 163.934 678.948 158.157 665.777 164.29ZM261.917 186.434C259.763 187.255 255.704 189.66 252.897 191.78C248.256 195.284 247.603 195.507 245.696 194.241C242.287 191.978 235.017 192.336 230.654 194.983C228.552 196.257 220.083 203.852 211.833 211.86C189.159 233.867 191.562 232.106 186.564 230.383C184.234 229.581 176.093 228.268 168.474 227.465C152.687 225.803 146.316 223.772 131.44 215.658C112.717 205.444 104.396 203.521 81.5201 204.119C67.1841 204.494 65.0581 204.795 56.8301 207.621C47.2061 210.926 40.0011 214.55 28.8861 221.676C16.8791 229.375 0.483126 241.91 0.0811263 243.699C-0.130874 244.644 0.0871269 246.541 0.566127 247.916C1.75713 251.33 26.1291 290.217 29.0591 293.377C32.1671 296.728 34.0471 296.589 42.3911 292.387C51.7831 287.657 60.3631 285.53 66.6721 286.367C69.4081 286.729 83.8381 291.022 98.7391 295.905C145.013 311.069 148.407 311.916 162.911 311.916C172.821 311.916 174.028 311.677 186.099 307.319C193.103 304.79 202.883 300.776 207.833 298.4C218.786 293.141 234.801 280.55 246.261 268.188C258.813 254.647 279.539 224.702 283.664 214.146C287.265 204.933 284.723 192.361 278.319 187.705C274.874 185.201 266.798 184.575 261.917 186.434ZM265.773 198.147C261.843 200.22 253.906 208.728 244.999 220.416C234.24 234.534 219.162 249.928 203.839 262.439C188.671 274.824 185.333 278.201 185.333 281.163C185.333 284.422 188.931 288.916 191.54 288.916C194.453 288.916 210.926 280.946 218.143 276.045C231.079 267.26 240.491 256.812 256.682 233.262C267.929 216.903 272.333 208.983 272.333 205.116C272.333 199.176 269.509 196.176 265.773 198.147ZM234.833 206.769C230.761 209.274 200.333 240.631 200.333 242.322C200.333 243.064 200.992 244.218 201.798 244.887C202.972 245.861 203.815 245.708 206.048 244.116C209.937 241.342 218.235 232.428 229.624 218.787C240.826 205.37 242.178 202.251 234.833 206.769ZM115.263 246.5C113.029 249.192 115.5 251.245 123.938 253.71C128.28 254.979 135.658 257.148 140.333 258.53C151.802 261.92 166.521 262.763 175.223 260.527C188.088 257.222 192.625 254.063 188.922 250.99C187.836 250.089 185.596 250.207 179.193 251.505C167.657 253.842 155.618 252.954 137.849 248.456C122.412 244.548 117.254 244.101 115.263 246.5ZM305 265.583C304.633 265.949 304.333 271.799 304.333 278.583V290.916H308.833C311.308 290.916 313.333 291.128 313.333 291.387C313.333 294.615 303.852 310.637 295.86 320.916C289.5 329.095 288.041 334.495 287.553 351.666L287.119 366.916H297.226H307.333V355.598C307.333 341.932 308.946 335.622 313.556 331.259C318.152 326.907 320.483 325.916 326.119 325.916C331.83 325.916 336.512 328.573 340.049 333.822C343.455 338.876 344.321 343.3 344.327 355.666L344.333 366.916H354.455H364.576L364.11 351.666C363.579 334.282 362.248 329.458 355.527 320.556C351.052 314.63 343.391 310.012 333.986 307.572C330.77 306.738 327.899 305.816 327.606 305.523C327.313 305.23 328.257 301.798 329.703 297.896C331.34 293.48 332.333 288.767 332.333 285.411V280.021L327.083 279.718L321.833 279.416L321.539 272.166L321.245 264.916H313.456C309.172 264.916 305.366 265.216 305 265.583ZM398.556 265.969C392.069 267.261 384.699 271.735 379.271 277.674C371.968 285.664 369.256 294.888 368.614 313.916C368.237 325.069 368.492 329.979 369.719 335.187C372.519 347.072 377.963 355.568 386.086 360.725C394.636 366.154 399.304 366.916 424.015 366.916H446.333V356.916V346.916L426.083 346.91C414.946 346.907 404.159 346.44 402.113 345.872C396.94 344.435 391.802 339.271 390.194 333.892C388.53 328.324 388.536 305.138 390.203 299.211C391.466 294.723 395.187 289.651 398.691 287.643C400.128 286.82 408.233 286.252 423.333 285.916L445.833 285.416V275.416V265.416L424.333 265.266C412.508 265.184 400.908 265.5 398.556 265.969ZM451.694 266.417C451.362 267.283 451.316 276.186 451.592 286.203C452.176 307.405 453.224 311.831 459.767 320.72C467.718 331.52 477.472 336.364 491.331 336.396C496.007 336.407 501.746 336.073 504.083 335.654L508.333 334.892V350.904V366.916H528.333H548.333V356.916V346.916H538.333H528.333V305.916V264.916H518.333H508.333V282.351C508.333 300.538 507.913 302.956 503.692 309.092C500.562 313.643 495.956 315.916 489.866 315.916C484.85 315.916 482.185 314.891 478.488 311.541C473.377 306.91 472.866 304.656 472.333 284.416L471.833 265.416L462.066 265.13C453.926 264.891 452.198 265.105 451.694 266.417ZM583.081 266.402C572.721 269.253 563.882 277.23 558.61 288.486L555.833 294.416L555.536 330.666L555.24 366.916H565.286H575.333L575.355 333.666C575.379 296.68 575.606 295.23 582.236 289.651C591.307 282.018 604.401 285.253 609.453 296.375C611.115 300.033 611.291 303.571 611.311 333.666L611.333 366.916H621.333H631.333V351.916V336.916H641.833H652.333V326.416V315.916H641.944H631.554L631.161 305.166C630.728 293.311 628.488 286.688 622.248 278.809C613.415 267.656 597.196 262.519 583.081 266.402Z" fill="#076FBA"/>
</svg>
