<svg width="580" height="426" viewBox="0 0 580 426" fill="none" xmlns="http://www.w3.org/2000/svg">
<path fill-rule="evenodd" clip-rule="evenodd" d="M111.381 0.850252C108.809 2.1749 81.7803 46.4639 53.079 96.385C41.8371 115.938 39.375 120.903 39.375 124.021C39.375 130.064 41.9143 134.567 45.9228 135.632L49.4118 136.559L49.4728 153.221C49.506 162.385 49.787 187.415 50.0974 208.844C50.7328 252.735 50.8694 253.835 56.5186 260.454L59.7211 264.208L114.208 264.606L168.695 265.005L171.747 261.865C173.426 260.137 175.944 256.066 177.344 252.817L179.89 246.908L179.891 229.584C179.892 220.057 180.121 195.258 180.399 174.476L180.906 136.693L183.985 135.962C187.65 135.091 189.708 131.835 190.386 125.828C190.843 121.782 190.455 120.637 185.58 111.651C180.426 102.151 134.667 25.2066 125.557 10.7202C119.337 0.829758 115.97 -1.5147 111.381 0.850252ZM104.186 56.2327C98.9015 64.7752 88.4972 82.2171 81.0662 94.9906L67.5551 118.216V173.64C67.5551 226.222 67.6308 229.21 69.0259 231.939C70.3631 234.556 71.3251 234.817 79.6417 234.817H88.7868L88.8007 217.387C88.8285 181.731 90.7486 167.32 96.9034 156.578C110.233 133.311 134.837 143.05 140.169 173.703C141.04 178.714 141.537 188.837 141.847 207.928L142.285 235.037L151.321 234.585C157.523 234.276 160.756 233.546 161.631 232.258C162.778 230.567 162.899 224.808 162.853 174.159L162.803 117.936L145.466 89.2286C121.316 49.239 115.917 40.6991 114.782 40.6991C114.239 40.6991 109.471 47.6887 104.186 56.2327ZM382.941 232.767V322.307H385.141C386.351 322.307 389.999 322.705 393.247 323.191L399.154 324.074V283.762C399.154 244.203 399.188 243.336 400.95 237.424C403.101 230.209 408.183 222.973 411.987 221.709C418.167 219.657 425.886 228.5 427.632 239.633C428.162 243.018 428.486 259.944 428.488 284.481L428.493 323.893L436.406 322.929C440.759 322.398 444.421 321.811 444.545 321.623C444.669 321.436 444.824 301.367 444.891 277.024C445.035 224.387 444.746 221.348 438.544 210.366C433.245 200.985 427.927 197.49 418.842 197.423C410.82 197.366 408.741 198.808 402.894 208.494L399.154 214.686V178.956V143.226H391.048H382.941V232.767ZM462.188 144.618C459.255 146.193 457.077 149.78 455.794 155.144C453.543 164.56 455.518 173.614 460.708 177.681C469.669 184.698 477.627 170.088 473.763 153.714C472 146.24 466.79 142.146 462.188 144.618ZM486.717 144.78C486.047 146.703 486.102 320.356 486.775 322.282C487.049 323.067 490.439 323.674 494.549 323.674H501.838V314.493V305.312L505.892 312.297C512.009 322.839 513.926 324.155 524.1 324.793L532.85 325.343L538.574 320.336C548.789 311.395 555.312 296.067 557.804 275.144C559.228 263.19 559.242 255.757 557.86 244.219C555.519 224.663 548.594 208.222 539.484 200.591C534.996 196.831 534.016 196.543 525.772 196.555C515.172 196.569 511.358 199.012 505.505 209.535L501.838 216.13V179.678V143.226H494.549C489.938 143.226 487.061 143.798 486.717 144.78ZM268.74 153.821C268.18 156.641 260.254 195.449 251.128 240.064C240.321 292.89 234.796 321.647 235.288 322.517C235.765 323.362 239.11 323.443 244.384 322.739L252.725 321.623L256.326 302.485L259.927 283.347H279.936H299.945L303.455 302.485L306.964 321.623L312.333 322.479C321.756 323.98 325.808 323.826 325.817 321.965C325.827 319.563 291.789 152.489 290.863 150.403C290.325 149.191 287.151 148.694 279.932 148.694H269.759L268.74 153.821ZM110.647 177.254C106.536 181.826 106.21 184.118 105.903 210.552L105.622 234.817H114.846H124.071L124.557 222.672C124.825 215.993 124.821 204.511 124.548 197.157C124.109 185.325 123.819 183.324 122.029 179.776C119.323 174.415 114.217 173.283 110.647 177.254ZM278.868 189.363C271.85 223.71 266.36 251.8 266.36 253.357C266.36 254.99 268.62 255.322 279.742 255.322C287.103 255.322 293.334 254.952 293.589 254.501C293.845 254.048 291.436 240.362 288.237 224.085C285.039 207.807 282.093 192.491 281.69 190.047C280.794 184.616 279.884 184.394 278.868 189.363ZM366.167 196.613C361.83 198.129 356.718 203.582 352.454 211.24L348.971 217.497V207.702V197.907H340.773H332.574L332.96 260.171C333.172 294.417 333.526 322.757 333.747 323.148C333.968 323.539 337.483 323.425 341.56 322.896L348.971 321.932L348.986 291.02C348.995 274.018 349.322 256.109 349.713 251.221C350.383 242.861 350.671 241.928 354.576 235.45C359.363 227.509 362.802 225.248 370.099 225.248H375.221V210.211V195.173L372.325 195.324C370.733 195.406 367.962 195.987 366.167 196.613ZM457.059 260.791V323.674H465.165H473.272V260.791V197.907H465.165H457.059V260.791ZM567.476 231.058C567.497 288.113 568.622 300.44 574.937 312.843C579.493 321.79 584.171 325.018 592.555 324.997C600.586 324.978 604.06 322.802 609.915 314.121L613.588 308.676L613.983 314.876C614.2 318.285 614.507 321.303 614.665 321.584C614.824 321.864 618.338 322.532 622.476 323.071L630 324.048V260.978V197.907H621.893H613.787V234.067C613.787 275.676 613.311 281.662 609.448 288.707C601.169 303.8 590.466 303.363 586.094 287.751C584.322 281.427 584.251 279.902 583.856 239.563L583.449 197.907H575.456H567.463L567.476 231.058ZM513.762 224.392C509.255 228.108 504.49 237.248 503.384 244.297C502.066 252.696 502.459 271.69 504.082 278.017C507.121 289.866 513.406 297.461 521.208 298.715C525.038 299.33 526.352 298.886 529.957 295.763C534.462 291.859 538.089 284.96 540.191 276.29C542.073 268.531 541.935 250.917 539.931 243.019C535.089 223.946 523.934 216.005 513.762 224.392ZM199.511 257.183C197.775 258.94 195.252 261.823 193.904 263.588C191.714 266.454 191.18 266.622 188.897 265.161C181.948 260.711 178.468 264.066 163.262 289.866C147.696 316.277 147.124 317.063 144.682 315.418C143.637 314.714 137.494 312.895 131.032 311.373C116.7 308 114.531 306.783 100.247 294.098C85.2407 280.772 81.8305 279.362 64.8529 279.455C51.8198 279.527 51.0902 279.68 44.2212 283.792C35.1704 289.21 30.1697 293.711 20.0735 305.531C7.50132 320.247 0 331.309 0 335.13C0 340.682 21.0131 400.193 23.9593 402.986C25.1521 404.115 26.5395 403.637 30.3072 400.792C38.9434 394.274 45.1122 390.729 47.8831 390.694C51.4315 390.647 57.6442 393.723 83.7684 408.456C111.315 423.99 113.087 424.783 122.371 425.751C131.579 426.71 135.398 425.243 149.759 415.228C164.785 404.75 174.312 393.48 186.727 371.494C198.084 351.382 216.462 304.749 218.98 289.653C221.142 276.692 218.592 260.338 213.714 255.872C210.344 252.785 203.202 253.446 199.511 257.183ZM204.935 270.68C202.128 273.308 197.485 281.959 189.698 299.067C179.41 321.668 170.918 337.091 158.272 356.131C146.036 374.555 142.831 380.456 142.831 384.55C142.831 388.774 145.704 394.759 147.733 394.759C150.389 394.759 165.831 380.705 171.397 373.222C180.131 361.48 190.006 340.559 201.936 308.523C207.757 292.89 209.959 284.949 209.983 279.497C210.015 272.09 207.717 268.074 204.935 270.68ZM181.048 282.461C177.91 285.877 154.412 328.758 154.412 331.068C154.412 334.277 156.459 336.328 158.105 334.769C160.302 332.687 171.132 312.046 178.258 296.362C185.713 279.949 186.373 276.664 181.048 282.461ZM88.9412 336.251C86.3139 340.903 88.4409 343.239 101.555 350.1C112.481 355.817 118.856 357.825 126.12 357.839C134.496 357.855 146.691 351.055 146.691 346.369C146.691 341.876 144.77 341.352 136.646 343.63C127.305 346.25 120.745 345.221 104.9 338.652C94.361 334.283 90.3903 333.685 88.9412 336.251Z" fill="#076FBA"/>
</svg>
